<?xml version="1.0" encoding="iso-8859-1"?>
<!-- Generator: Adobe Illustrator 19.0.0, SVG Export Plug-In . SVG Version: 6.00 Build 0)  -->
<svg version="1.1" id="Layer_1" xmlns="http://www.w3.org/2000/svg" xmlns:xlink="http://www.w3.org/1999/xlink" x="0px" y="0px"
	 viewBox="0 0 504.8 504.8" style="enable-background:new 0 0 504.8 504.8;" xml:space="preserve">
<path style="fill:#528C00;" d="M279.6,47.2c0,36-34.4,73.6-27.2,73.6c7.2,0-27.2-37.6-27.2-73.6S237.2,0,252.4,0
	C267.6,0,279.6,11.2,279.6,47.2z"/>
<path style="fill:#68A519;" d="M252.4,0c15.2,0,27.2,11.2,27.2,47.2s-34.4,73.6-27.2,73.6"/>
<g>
	<path style="fill:#80BC2B;" d="M279.6,47.2c0-16-2.4-27.2-6.4-34.4c1.6,7.2,2.4,16,2.4,27.2c0,31.2-19.2,64-23.2,76l0,0
		C257.2,105.6,279.6,76,279.6,47.2z"/>
	<path style="fill:#80BC2B;" d="M252.4,116c-4-12-23.2-44.8-23.2-76c0-11.2,0.8-20,2.4-27.2c-4,7.2-6.4,18.4-6.4,34.4
		C225.2,76,247.6,105.6,252.4,116C252.4,116.8,252.4,116.8,252.4,116z"/>
	<path style="fill:#80BC2B;" d="M251.6,118.4c-0.8,1.6-0.8,2.4,0.8,2.4C251.6,120.8,251.6,120,251.6,118.4z"/>
	<path style="fill:#80BC2B;" d="M252.4,120.8L252.4,120.8c0.8,0,0.8-0.8,0.8-3.2C253.2,120,253.2,120.8,252.4,120.8z"/>
</g>
<path style="fill:#528C00;" d="M223.6,100c22.4,22.4,24.8,67.2,28.8,62.4c4.8-4.8-40-6.4-62.4-28.8s-21.6-36.8-12.8-46.4
	C186.8,78.4,201.2,77.6,223.6,100z"/>
<path style="fill:#68A519;" d="M177.2,87.2c9.6-9.6,24-9.6,46.4,12.8s24.8,67.2,28.8,62.4"/>
<g>
	<path style="fill:#80BC2B;" d="M223.6,100c-9.6-9.6-18.4-15.2-24.8-17.6c5.6,3.2,11.2,8.8,18.4,15.2c19.2,19.2,28,52,32.8,61.6l0,0
		C246,149.6,241.2,117.6,223.6,100z"/>
	<path style="fill:#80BC2B;" d="M250,159.2c-9.6-4.8-42.4-13.6-61.6-32.8c-7.2-7.2-12-12.8-15.2-18.4c2.4,7.2,7.2,15.2,17.6,24.8
		C207.6,151.2,239.6,156,250,159.2C250,160,250,160,250,159.2z"/>
	<path style="fill:#80BC2B;" d="M250.8,160.8c0.8,1.6,1.6,2.4,2.4,1.6C251.6,163.2,250.8,162.4,250.8,160.8z"/>
	<path style="fill:#80BC2B;" d="M252.4,162.4L252.4,162.4c0.8-0.8,0-1.6-1.6-2.4C252.4,160.8,253.2,161.6,252.4,162.4z"/>
</g>
<path style="fill:#528C00;" d="M188.4,327.2c24-16.8,65.6-12,62.4-16.8c-3.2-4.8-12.8,36-36.8,52.8s-37.6,14.4-44,4
	C162.8,357.6,164.4,344,188.4,327.2z"/>
<path style="fill:#68A519;" d="M170,367.2c-7.2-9.6-5.6-23.2,18.4-40.8c24-16.8,65.6-12,62.4-16.8"/>
<g>
	<path style="fill:#80BC2B;" d="M188.4,327.2c-10.4,7.2-16.8,14.4-20,20c4-4.8,9.6-9.6,17.6-14.4c20.8-15.2,52-17.6,61.6-20l0,0
		C238,313.6,207.6,313.6,188.4,327.2z"/>
	<path style="fill:#80BC2B;" d="M247.6,312c-5.6,8-19.2,36.8-40,51.2c-7.2,5.6-14.4,8.8-19.2,11.2c7.2-0.8,15.2-4.8,25.6-12
		C233.2,349.6,242.8,320.8,247.6,312L247.6,312z"/>
	<path style="fill:#80BC2B;" d="M249.2,312c1.6,0,2.4-0.8,1.6-1.6C250.8,311.2,250.8,311.2,249.2,312z"/>
	<path style="fill:#80BC2B;" d="M250.8,310.4L250.8,310.4c-0.8-0.8-1.6,0-2.4,0.8C249.2,310.4,250,309.6,250.8,310.4z"/>
</g>
<path style="fill:#528C00;" d="M206,391.2c15.2-16,47.2-19.2,43.2-22.4c-3.2-3.2-4,28.8-19.2,44.8s-25.6,16-32,10.4
	C191.6,417.6,191.6,407.2,206,391.2z"/>
<path style="fill:#68A519;" d="M198.8,424c-7.2-6.4-7.2-16.8,7.2-32.8c15.2-16,47.2-19.2,43.2-22.4"/>
<g>
	<path style="fill:#80BC2B;" d="M206,391.2c-6.4,7.2-10.4,13.6-11.2,18.4c2.4-4,5.6-8,10.4-13.6c13.6-14.4,36-21.6,42.4-24.8l0,0
		C241.2,373.6,218.8,377.6,206,391.2z"/>
	<path style="fill:#80BC2B;" d="M247.6,371.2c-3.2,7.2-8,30.4-21.6,44.8c-4.8,4.8-8.8,8.8-12.8,11.2c4.8-1.6,10.4-5.6,17.6-12.8
		C242.8,400.8,246,377.6,247.6,371.2L247.6,371.2z"/>
	<path style="fill:#80BC2B;" d="M249.2,370.4c0.8-0.8,1.6-0.8,0.8-1.6C250,369.6,250,369.6,249.2,370.4z"/>
	<path style="fill:#80BC2B;" d="M250,368.8L250,368.8c-0.8-0.8-0.8,0-1.6,0.8C249.2,368.8,249.2,368.8,250,368.8z"/>
</g>
<path style="fill:#528C00;" d="M190,159.2c32.8,8,60.8,41.6,62.4,36c1.6-5.6-39.2,12-72,4S139.6,180,142,168.8
	C145.2,158.4,157.2,151.2,190,159.2z"/>
<path style="fill:#68A519;" d="M142,169.6c2.4-11.2,15.2-17.6,47.2-10.4c32.8,8,60.8,41.6,62.4,36"/>
<g>
	<path style="fill:#80BC2B;" d="M190,159.2c-14.4-3.2-24.8-4-32-2.4c7.2,0.8,15.2,1.6,25.6,4c28.8,6.4,55.2,28,64.8,33.6l0,0
		C239.6,188,215.6,165.6,190,159.2z"/>
	<path style="fill:#80BC2B;" d="M248.4,194.4c-11.2,0.8-44.8,8-72.8,0.8c-10.4-2.4-18.4-4.8-24.8-8c6.4,4.8,16,8.8,29.6,12
		C206,205.6,237.2,196,248.4,194.4L248.4,194.4z"/>
	<path style="fill:#80BC2B;" d="M249.2,195.2c1.6,0.8,2.4,0.8,2.4,0C251.6,196,250.8,196,249.2,195.2z"/>
	<path style="fill:#80BC2B;" d="M252.4,195.2L252.4,195.2c0-0.8-0.8-0.8-2.4-0.8C251.6,194.4,252.4,194.4,252.4,195.2z"/>
</g>
<path style="fill:#528C00;" d="M182,272.8c32-8,73.6,8,72,3.2c-1.6-5.6-28.8,28.8-61.6,37.6c-32,8-44.8,2.4-48-8.8
	C141.2,292.8,149.2,280.8,182,272.8z"/>
<path style="fill:#68A519;" d="M144.4,304c-3.2-11.2,4.8-22.4,37.6-31.2c32-8,73.6,8,72,3.2"/>
<g>
	<path style="fill:#80BC2B;" d="M182,272.8c-14.4,4-24,8-29.6,12.8c6.4-3.2,14.4-5.6,24-8c28-7.2,61.6-0.8,72.8-0.8l0,0
		C238.8,275.2,207.6,265.6,182,272.8z"/>
	<path style="fill:#80BC2B;" d="M249.2,276.8c-9.6,5.6-36,28-64,35.2c-10.4,2.4-18.4,4-25.6,4.8c7.2,0.8,17.6,0,32-3.2
		C218,306.4,240.4,283.2,249.2,276.8L249.2,276.8z"/>
	<path style="fill:#80BC2B;" d="M250.8,276.8c1.6,0,2.4,0,2.4-0.8C254,276,252.4,276.8,250.8,276.8z"/>
	<path style="fill:#80BC2B;" d="M253.2,275.2L253.2,275.2c0-0.8-0.8-0.8-2.4,0C252.4,275.2,253.2,275.2,253.2,275.2z"/>
</g>
<path style="fill:#528C00;" d="M174,213.6c37.6,0,78.4,28,78.4,21.6c0-5.6-40,21.6-78.4,21.6c-37.6,0-49.6-9.6-49.6-21.6
	C124.4,223.2,136.4,213.6,174,213.6z"/>
<path style="fill:#68A519;" d="M124.4,235.2c0-12,12-21.6,49.6-21.6s78.4,28,78.4,21.6"/>
<g>
	<path style="fill:#80BC2B;" d="M174,213.6c-16.8,0-28,1.6-36,4.8c8-1.6,16.8-1.6,28.8-1.6c33.6,0,68,15.2,80,18.4l0,0
		C236.4,231.2,204.4,213.6,174,213.6z"/>
	<path style="fill:#80BC2B;" d="M247.6,235.2c-12,3.2-47.2,18.4-80,18.4c-12,0-21.6-0.8-28.8-1.6c8,3.2,19.2,4.8,36,4.8
		C204.4,256.8,236.4,239.2,247.6,235.2L247.6,235.2z"/>
	<path style="fill:#80BC2B;" d="M249.2,235.2c1.6,0.8,3.2,0.8,3.2,0C252.4,236,250.8,236,249.2,235.2z"/>
	<path style="fill:#80BC2B;" d="M252.4,235.2L252.4,235.2c0-0.8-0.8-0.8-3.2,0C250.8,234.4,252.4,234.4,252.4,235.2z"/>
</g>
<path style="fill:#528C00;" d="M281.2,100c-22.4,22.4-24,67.2-28.8,62.4c-4.8-4.8,40-6.4,62.4-28.8s21.6-36.8,12.8-46.4
	C318,78.4,303.6,77.6,281.2,100z"/>
<path style="fill:#68A519;" d="M327.6,87.2c-9.6-9.6-24-9.6-46.4,12.8c-22.4,22.4-24,67.2-28.8,62.4"/>
<g>
	<path style="fill:#80BC2B;" d="M281.2,100c9.6-9.6,18.4-15.2,24.8-17.6c-5.6,3.2-11.2,8.8-18.4,15.2c-19.2,19.2-28,52-32.8,61.6
		l0,0C258.8,149.6,263.6,117.6,281.2,100z"/>
	<path style="fill:#80BC2B;" d="M254.8,159.2c9.6-4.8,42.4-13.6,61.6-32.8c7.2-7.2,12-12.8,15.2-18.4c-2.4,7.2-7.2,15.2-17.6,24.8
		C297.2,151.2,265.2,156,254.8,159.2C254.8,160,254.8,160,254.8,159.2z"/>
	<path style="fill:#80BC2B;" d="M254.8,160.8c-0.8,1.6-1.6,2.4-2.4,1.6C253.2,163.2,254,162.4,254.8,160.8z"/>
	<path style="fill:#80BC2B;" d="M252.4,162.4L252.4,162.4c-0.8-0.8,0-1.6,1.6-2.4C252.4,160.8,251.6,161.6,252.4,162.4z"/>
</g>
<path style="fill:#528C00;" d="M316.4,327.2c-24-16.8-65.6-12-62.4-16.8s12.8,36,36.8,52.8s37.6,14.4,44,4
	C342,357.6,340.4,344,316.4,327.2z"/>
<path style="fill:#68A519;" d="M334.8,367.2c7.2-9.6,5.6-23.2-18.4-40.8c-24-16.8-65.6-12-62.4-16.8"/>
<g>
	<path style="fill:#80BC2B;" d="M316.4,327.2c10.4,7.2,16.8,14.4,20,20c-4-4.8-9.6-9.6-17.6-14.4c-20.8-15.2-52-17.6-61.6-20l0,0
		C266.8,313.6,297.2,313.6,316.4,327.2z"/>
	<path style="fill:#80BC2B;" d="M257.2,312c5.6,8,19.2,36.8,40,51.2c7.2,5.6,14.4,8.8,19.2,11.2c-7.2-0.8-15.2-4.8-25.6-12
		C271.6,349.6,262,320.8,257.2,312L257.2,312z"/>
	<path style="fill:#80BC2B;" d="M255.6,312c-1.6,0-2.4-0.8-1.6-1.6C254,311.2,254.8,311.2,255.6,312z"/>
	<path style="fill:#80BC2B;" d="M254,310.4L254,310.4c0.8-0.8,1.6,0,2.4,0.8C255.6,310.4,254.8,309.6,254,310.4z"/>
</g>
<path style="fill:#528C00;" d="M298.8,391.2c-15.2-16-47.2-19.2-43.2-22.4c3.2-3.2,4,28.8,19.2,44.8s25.6,16,32,10.4
	C313.2,417.6,313.2,407.2,298.8,391.2z"/>
<path style="fill:#68A519;" d="M306,424c7.2-6.4,7.2-16.8-7.2-32.8c-15.2-16-47.2-19.2-43.2-22.4"/>
<g>
	<path style="fill:#80BC2B;" d="M298.8,391.2c6.4,7.2,10.4,13.6,11.2,18.4c-2.4-4-5.6-8-10.4-13.6c-13.6-14.4-36-21.6-42.4-24.8l0,0
		C263.6,373.6,286,377.6,298.8,391.2z"/>
	<path style="fill:#80BC2B;" d="M257.2,371.2c3.2,7.2,8,30.4,21.6,44.8c4.8,4.8,8.8,8.8,12.8,11.2c-4.8-1.6-10.4-5.6-17.6-12.8
		C262,400.8,258.8,377.6,257.2,371.2L257.2,371.2z"/>
	<path style="fill:#80BC2B;" d="M255.6,370.4c-0.8-0.8-1.6-0.8-0.8-1.6C254.8,369.6,254.8,369.6,255.6,370.4z"/>
	<path style="fill:#80BC2B;" d="M254.8,368.8L254.8,368.8c0.8-0.8,0.8,0,1.6,0.8C255.6,368.8,255.6,368.8,254.8,368.8z"/>
</g>
<path style="fill:#528C00;" d="M314.8,159.2c-32.8,8-60.8,41.6-62.4,36c-1.6-5.6,39.2,12,72,4s40.8-19.2,38.4-30.4
	C359.6,158.4,347.6,151.2,314.8,159.2z"/>
<path style="fill:#68A519;" d="M362.8,169.6c-2.4-11.2-15.2-17.6-48-10.4c-32.8,8-60.8,41.6-62.4,36"/>
<g>
	<path style="fill:#80BC2B;" d="M314.8,159.2c14.4-3.2,24.8-4,32-2.4c-7.2,0.8-15.2,1.6-25.6,4c-28.8,6.4-55.2,28-64.8,33.6l0,0
		C265.2,188,289.2,165.6,314.8,159.2z"/>
	<path style="fill:#80BC2B;" d="M256.4,194.4c11.2,0.8,44.8,8,72.8,0.8c10.4-2.4,18.4-4.8,24.8-8c-6.4,4.8-16,8.8-29.6,12
		C298.8,205.6,267.6,196,256.4,194.4L256.4,194.4z"/>
	<path style="fill:#80BC2B;" d="M255.6,195.2c-1.6,0.8-2.4,0.8-2.4,0C253.2,196,254,196,255.6,195.2z"/>
	<path style="fill:#80BC2B;" d="M252.4,195.2L252.4,195.2c0-0.8,0.8-0.8,2.4-0.8C253.2,194.4,252.4,194.4,252.4,195.2z"/>
</g>
<path style="fill:#528C00;" d="M322.8,272.8c-32-8-73.6,8-72,3.2c1.6-5.6,28.8,28.8,61.6,37.6c32,8,44.8,2.4,48-8.8
	C363.6,292.8,355.6,280.8,322.8,272.8z"/>
<path style="fill:#68A519;" d="M360.4,304c3.2-11.2-4.8-22.4-37.6-31.2c-32-8-73.6,8-72,3.2"/>
<g>
	<path style="fill:#80BC2B;" d="M322.8,272.8c14.4,4,24,8,29.6,12.8c-6.4-3.2-14.4-5.6-24-8c-28-7.2-61.6-0.8-72.8-0.8l0,0
		C266,275.2,297.2,265.6,322.8,272.8z"/>
	<path style="fill:#80BC2B;" d="M255.6,276.8c9.6,5.6,36,28,64,35.2c10.4,2.4,18.4,4,25.6,4.8c-7.2,0.8-17.6,0-32-3.2
		C286.8,306.4,264.4,283.2,255.6,276.8L255.6,276.8z"/>
	<path style="fill:#80BC2B;" d="M254,276.8c-1.6,0-2.4,0-2.4-0.8C250.8,276,252.4,276.8,254,276.8z"/>
	<path style="fill:#80BC2B;" d="M251.6,275.2L251.6,275.2c0-0.8,0.8-0.8,2.4,0C252.4,275.2,251.6,275.2,251.6,275.2z"/>
</g>
<path style="fill:#528C00;" d="M330.8,213.6c-37.6,0-78.4,28-78.4,21.6c0-5.6,40,21.6,78.4,21.6c37.6,0,49.6-9.6,49.6-21.6
	C380.4,223.2,368.4,213.6,330.8,213.6z"/>
<path style="fill:#68A519;" d="M380.4,235.2c0-12-12-21.6-49.6-21.6s-78.4,28-78.4,21.6"/>
<g>
	<path style="fill:#80BC2B;" d="M330.8,213.6c16.8,0,28.8,1.6,36,4.8c-8-1.6-16.8-1.6-28.8-1.6c-33.6,0-68,15.2-80,18.4l0,0
		C268.4,231.2,300.4,213.6,330.8,213.6z"/>
	<path style="fill:#80BC2B;" d="M257.2,235.2c12,3.2,47.2,18.4,80,18.4c12,0,21.6-0.8,28.8-1.6c-8,3.2-19.2,4.8-36,4.8
		C300.4,256.8,268.4,239.2,257.2,235.2L257.2,235.2z"/>
	<path style="fill:#80BC2B;" d="M255.6,235.2c-1.6,0.8-3.2,0.8-3.2,0C252.4,236,254,236,255.6,235.2z"/>
	<path style="fill:#80BC2B;" d="M252.4,235.2L252.4,235.2c0-0.8,0.8-0.8,3.2,0C254,234.4,252.4,234.4,252.4,235.2z"/>
	<polyline style="fill:#80BC2B;" points="252.4,112.8 252.4,112.8 252.4,112.8 252.4,112.8 252.4,112.8 	"/>
</g>
<path style="fill:#02243E;" d="M252.4,504.8c-2.4,0-4-1.6-4-4V108c0-2.4,1.6-4,4-4s4,1.6,4,4v392.8
	C256.4,503.2,254.8,504.8,252.4,504.8z"/>
<g>
</g>
<g>
</g>
<g>
</g>
<g>
</g>
<g>
</g>
<g>
</g>
<g>
</g>
<g>
</g>
<g>
</g>
<g>
</g>
<g>
</g>
<g>
</g>
<g>
</g>
<g>
</g>
<g>
</g>
</svg>
